<svg xmlns="http://www.w3.org/2000/svg" width="48" height="48" viewBox="0 0 12.7 12.7"><path fill="#905b46" stroke="#333" stroke-linejoin="round" stroke-width=".399" d="m8.64 3.054.94.94L6.568 7.38l-3.575 3.195-.94-.94 3.2-3.573z"/><path fill="none" stroke="#a5a5a5" stroke-width=".399" d="M4.367 2.512s-1.723 5.05-.513 6.262c1.21 1.212 6.263-.506 6.263-.506"/><path fill="#c95353" stroke="#333" stroke-width=".266" d="M5.477 7.158 5.3 8.378l-.908 1.081-.512-.71-.71-.513 1.086-.903z"/><path fill="#825c46" stroke="#333" stroke-width=".266" d="m8.914 3.344.376.376-5.222 5.217-.376-.377z"/><path fill="#aaa" stroke="#333" stroke-width=".266" d="M8.665 3.05c.051-.133 1.402-.648 1.485-.565.083.082-.433 1.433-.567 1.484-.133.05-.969-.785-.918-.919z"/><path fill="#ccc" d="M9.29 3.486c.102-.038.71-.81.667-.849-.042-.038-1.072.344-1.132.42-.06.077.363.467.465.43z"/><path fill="#905b46" stroke="#333" stroke-linecap="round" stroke-linejoin="round" stroke-width=".399" d="m8.011 2.08.593.217-.917.915-.404-.404zm2.35 1.94.216.593-.729.727-.404-.404z" paint-order="markers fill stroke"/><g fill="#a96b52" stroke="#333" stroke-linejoin="round" transform="rotate(45 -21.328 16.35) scale(.5)"><path stroke-width=".794" d="m-25.413-23.797 2.988-2.393 2.488-1.681 2.164 3.32s-2.697-.824-3.745-.288l-.829.424-2.71 1.475z"/><circle cx="-25.805" cy="-23.261" r=".404" fill="#bbb" stroke-width=".397"/><rect width=".74" height="1.61" x="-10.466" y="-33.786" fill="#bbb" stroke-width=".529" rx="0" ry=".35" transform="rotate(-30)"/></g><g stroke="#333" stroke-linejoin="round" transform="scale(-.5 .5) rotate(-45 24.997 -9.931)"><path fill="#a96b52" stroke-width=".794" d="m-25.413-23.797 2.988-2.393 2.488-1.681 2.164 3.32s-2.697-.824-3.745-.288l-.829.424-2.71 1.475z"/><circle cx="-25.805" cy="-23.261" r=".404" fill="#bbb" stroke-width=".397"/><rect width=".74" height="1.61" x="-10.466" y="-33.786" fill="#bbb" stroke-width=".529" rx="0" ry=".35" transform="rotate(-30)"/></g><path fill="#bbb" stroke="#333" stroke-linecap="round" stroke-linejoin="round" stroke-width=".399" d="M9.11 3.524 7.63 2.42l-1.184.054.023.01c.097.046.482.233.656.403a.562.562 0 0 1 .019.018c.217.234.342.547.441.85.118.358.176 1.117.176 1.117s.758.058 1.116.176c.303.1.616.225.85.443a.427.427 0 0 1 .018.018c.17.175.356.56.402.657l.01.022.056-1.183z" paint-order="markers fill stroke"/><path fill="#9f9f9f" d="M8.975 3.706 10 5.064l.01.427s-.608-.461-.928-.59c-.37-.149-1.127-.188-1.127-.188z"/><path fill="none" stroke="#333" stroke-linecap="round" stroke-linejoin="round" stroke-width=".1995" d="M8.277 3.661s.276.184.394.302c.117.118.3.394.3.394"/><path fill="#a96b52" stroke="#333" stroke-linecap="round" stroke-linejoin="round" stroke-width=".399" d="m1.691 9.459 1.476 1.477-.493.492L1.2 9.951z" paint-order="markers fill stroke"/></svg>