<svg xmlns="http://www.w3.org/2000/svg" width="48" height="48" viewBox="0 0 12.7 12.7"><path fill="#b4952f" stroke="#333" stroke-linejoin="round" stroke-width=".399" d="m8.825 2.832.94.94-3.2 3.573L2.99 10.54l-.94-.94 3.2-3.573z"/><path fill="none" stroke="#ccc" stroke-width=".399" d="M3.976 3.013s-1.568 4.748-.358 5.96c1.21 1.212 5.934-.371 5.934-.371"/><path fill="#74b0bf" stroke="#333" stroke-linecap="round" stroke-linejoin="round" stroke-width=".2645" d="m6.259 1.932.33-.115.065.343-.553.957-.33.115-.065-.343z"/><path fill="#d4af37" stroke="#333" stroke-linejoin="round" stroke-width=".397" d="M4.993 2.836c.94-.328 2.884-.478 2.884-.478l-1.2 1.2-2.301-.187-.37.004s.654-.423.987-.539z"/><path fill="#88cfe0" stroke="#333" stroke-linecap="round" stroke-linejoin="round" stroke-width=".2645" d="M4.21 2.628c-.273-.52.996-1.454.996-1.454l-.092.27-.243 1.142.433.184s-.706.16-.705.438c0 .332.418.904.418.904l-.86-.33s-.303-.411-.283-.645c.017-.202.68.146.336-.509z"/><path fill="#c95353" stroke="#333" stroke-width=".266" d="m5.474 7.124-.177 1.22-.908 1.081-.512-.71-.71-.513L4.254 7.3z"/><path fill="#825c46" stroke="#333" stroke-width=".266" d="m8.911 3.31.376.376-5.222 5.217-.376-.377z"/><path fill="#aaa" stroke="#333" stroke-width=".266" d="M8.662 3.016c.051-.133 1.403-.648 1.485-.565.083.083-.433 1.434-.567 1.484-.133.051-.969-.785-.918-.919z"/><path fill="#ccc" d="M9.287 3.452c.102-.037.71-.81.667-.849-.042-.038-1.072.344-1.132.42-.06.077.363.467.465.43z"/><path fill="#74b0bf" stroke="#333" stroke-linecap="round" stroke-linejoin="round" stroke-width=".2645" d="m10.763 6.436.115-.33-.343-.065-.957.552-.115.33.343.065z"/><path fill="#d4af37" stroke="#333" stroke-linejoin="round" stroke-width=".397" d="M9.858 7.701c.329-.94.478-2.883.478-2.883l-1.199 1.2.186 2.3-.004.371s.423-.654.54-.988z"/><path fill="#88cfe0" stroke="#333" stroke-linecap="round" stroke-linejoin="round" stroke-width=".2645" d="M10.066 8.485c.52.273 1.454-.996 1.454-.996l-.27.092-1.141.243-.184-.434s-.161.706-.438.706c-.333 0-.905-.418-.905-.418l.33.86s.411.302.645.282c.202-.017-.145-.679.51-.335z"/><path fill="#88cfe0" stroke="#333" stroke-linejoin="round" stroke-width=".399" d="m7.942 1.994.133 1.64.887.888 1.64.135L9.207 6.05l-1.706-.955-.954-1.708z"/><path fill="#a6dbe8" stroke="#333" stroke-linecap="round" stroke-linejoin="round" stroke-width=".266" d="m8.029 3.744.584.205.248.628-.864.864-.555-.27-.278-.563z"/><path fill="#d4af37" stroke="#333" stroke-linecap="round" stroke-linejoin="round" stroke-width=".399" d="m1.688 9.425 1.476 1.478-.492.492-1.476-1.478z" paint-order="markers fill stroke"/></svg>