<svg xmlns="http://www.w3.org/2000/svg" width="48" height="48" viewBox="0 0 12.7 12.7"><path fill="#a93c4c" stroke="#333" stroke-linejoin="round" stroke-width=".399" d="m8.845 2.864.94.94-3.2 3.573-3.575 3.195-.94-.94 3.2-3.573z"/><path fill="none" stroke="#ddb474" stroke-width=".399" d="M4.491 3.81s-2.063 3.983-.853 5.195 5.196-.847 5.196-.847"/><path fill="#c95353" stroke="#333" stroke-width=".266" d="m5.494 7.156-.177 1.22-.908 1.081-.512-.71-.71-.513 1.087-.903z"/><path fill="#825c46" stroke="#333" stroke-width=".266" d="m8.931 3.341.376.377-5.222 5.217-.376-.377z"/><path fill="#aaa" stroke="#333" stroke-width=".266" d="M8.682 3.048c.051-.133 1.403-.648 1.485-.565.083.083-.433 1.433-.567 1.484-.133.05-.969-.785-.918-.919z"/><path fill="#ccc" d="M9.307 3.484c.102-.038.71-.81.667-.849-.042-.038-1.072.344-1.132.42-.06.077.363.467.465.43z"/><path fill="#c74659" stroke="#333" stroke-linejoin="round" stroke-width=".399" d="m5.254 2.295 1.42.293.376.752.565-.563.94.564.188.565.564.188.564.94-.565.565.752.376.291 1.42-.763.763-1.418-2.926-.752-.752L4.49 3.058z"/><path fill="#767164" stroke="#333" stroke-linejoin="round" stroke-width=".399" d="m5.076 1.683.96.208L4.49 3.81l-.395-1.148zm5.886 5.892-.207-.96-1.921 1.543 1.148.396z"/><path fill="#d4af37" stroke="#333" stroke-linejoin="round" stroke-width=".266" d="M7.93 3.596a.3.3 0 0 0-.424.424c.082.082.197.24.34.248l.534.534c.007.143.166.259.247.34a.3.3 0 0 0 .425-.424c-.082-.081-.197-.24-.34-.247l-.534-.535c-.008-.143-.166-.258-.247-.34z"/><path fill="#c74659" stroke="#333" stroke-linecap="round" stroke-linejoin="round" stroke-width=".399" d="m1.708 9.457 1.476 1.477-.492.492L1.216 9.95z" paint-order="markers fill stroke"/></svg>