<svg xmlns="http://www.w3.org/2000/svg" width="48" height="48" viewBox="0 0 12.7 12.7"><path fill="#9f9f9f" stroke="#333" stroke-linejoin="round" stroke-width=".399" d="m8.727 3.21.94.94-3.01 3.385L3.08 10.73l-.94-.94 3.2-3.573z"/><path fill="none" stroke="#ddb474" stroke-width=".399" d="M3.605 3.134s-1.107 4.817.104 6.03c1.21 1.211 6.239.047 6.239.047"/><path fill="#c95353" stroke="#333" stroke-width=".266" d="m5.564 7.314-.176 1.22-.908 1.081-.512-.71-.71-.513 1.086-.903z"/><path fill="#825c46" stroke="#333" stroke-width=".266" d="m9.002 3.5.376.376-5.222 5.217-.376-.377z"/><path fill="#aaa" stroke="#333" stroke-width=".266" d="M8.753 3.206c.05-.133 1.402-.648 1.485-.565.083.083-.434 1.433-.567 1.484-.134.05-.97-.785-.918-.919z"/><path fill="#ccc" d="M9.378 3.642c.102-.038.709-.81.667-.849-.042-.038-1.072.344-1.133.42-.06.077.364.467.466.43z"/><path fill="#bbb" stroke="#333" stroke-linejoin="round" stroke-width=".396" d="m4.705 1.819 2.89.638-.525 1.072-3.257-.834Zm6.137 6.137-.638-2.89-1.072.524.833 3.258z"/><path fill="#d4af37" stroke="#333" stroke-linejoin="round" stroke-width=".399" d="m8.01 1.57.023 1.61 1.663 1.665 1.61.026-.832.831-1.585.831-.629-1.006-.91-.912-1.006-.63.833-1.584z"/><path fill="#dabb55" d="m7.869 3.313 1.714 1.672-1.195.419-.916-.918z"/><path fill="#88cfe0" stroke="#333" stroke-linecap="round" stroke-linejoin="round" stroke-width=".1995" d="M7.572 3.452s.678.58 1 .901c.321.322.9 1.001.9 1.001l-.43.43s-.418-.84-.74-1.161c-.321-.322-1.16-.742-1.16-.742z"/><path fill="#bbb" stroke="#333" stroke-linejoin="round" stroke-width=".803" d="m-8.776-38.192-1.588 1.588 1.074 4.39 1.165-3.06z" class="UnoptimicedTransforms" transform="matrix(.226 .226 -.24 .24 -2.388 13.115)"/><path fill="#d4af37" stroke="#333" stroke-linecap="round" stroke-linejoin="round" stroke-width=".2645" d="m4.643 1.42.562.15-.439 1.64-.562-.15Zm1.029.242.562.15-.44 1.64-.562-.15Z"/><path fill="#bbb" stroke="#333" stroke-linejoin="round" stroke-width=".803" d="m-8.776-38.192-1.588 1.588 1.074 4.39 1.165-3.06z" class="UnoptimicedTransforms" transform="matrix(-.226 -.226 -.24 .24 -.415 15.088)"/><path fill="#d4af37" stroke="#333" stroke-linecap="round" stroke-linejoin="round" stroke-width=".2645" d="m11.28 8.057-.15-.563-1.64.44.15.562Zm-.242-1.029-.15-.562-1.64.44.15.562Z"/><path fill="#bbb" stroke="#333" stroke-linecap="round" stroke-linejoin="round" stroke-width=".399" d="m1.779 9.615 1.476 1.477-.493.492-1.476-1.477z" paint-order="markers fill stroke"/></svg>