<svg xmlns="http://www.w3.org/2000/svg" width="48" height="48" viewBox="0 0 12.7 12.7"><path fill="#74b0bf" stroke="#333" stroke-linejoin="round" stroke-width=".396" d="m8.828 2.903.933.933-3.174 3.547-3.546 3.173-.934-.933 3.174-3.547z"/><path fill="none" stroke="#ddb474" stroke-width=".396" d="M4.133 4.217S2.461 7.798 3.663 9s4.783-.47 4.783-.47"/><path fill="#c95353" stroke="#333" stroke-width=".264" d="m5.504 7.164-.175 1.21-.9 1.075-.51-.705-.704-.508 1.078-.897z"/><path fill="#825c46" stroke="#333" stroke-width=".264" d="m8.913 3.377.374.373-5.18 5.18-.374-.373z"/><path fill="#aaa" stroke="#333" stroke-width=".264" d="M8.666 3.086c.05-.133 1.392-.644 1.474-.562.082.082-.43 1.423-.562 1.473-.133.05-.962-.779-.912-.911z"/><path fill="#ccc" d="M9.287 3.518c.1-.037.703-.804.661-.843-.041-.038-1.064.342-1.124.418-.06.076.361.463.463.425z"/><path fill="#88cfe0" stroke="#333" stroke-linejoin="round" stroke-width=".396" d="M5.264 2.714 7.42 2.63l1.12.747.187.56.56.186.746 1.12L9.95 7.4l-.757.757-1.036-2.903-.747-.747-2.903-1.036z"/><path fill="#ccc" stroke="#333" stroke-linejoin="round" stroke-width=".396" d="m5.713 3.317-1.58.9s-.02-1.436.486-1.791c.332-.232 1.024-.15 1.21.1.187.25.155.636-.116.79zm3.634 3.634-.901 1.58s1.436.02 1.792-.487c.232-.331.15-1.024-.1-1.21-.251-.186-.637-.154-.791.117z"/><g fill="#bbb" stroke="#333" stroke-linejoin="round" stroke-width="2" transform="rotate(45.03 -3.685 30.636) scale(.133)"><circle cx="-112.109" cy="26.953" r="2.344"/><circle cx="-95.996" cy="26.953" r="2.344"/></g><path fill="#bbb" stroke="#333" stroke-linejoin="round" stroke-width=".264" d="m6.563 2.63.429-.742.428.742zM7.42 2.63l.743-.428v.858z"/><path fill="#bbb" stroke="#333" stroke-linejoin="round" stroke-width=".26488" d="m10.09 5.232.428-.746-.86.002z"/><path fill="#bbb" stroke="#333" stroke-linejoin="round" stroke-width=".264" d="m10.034 6.101.742-.429-.742-.428z"/><path fill="#88cfe0" stroke="#333" stroke-linecap="round" stroke-linejoin="round" stroke-width=".399" d="m1.68 9.437 1.476 1.477-.492.492L1.188 9.93z" paint-order="markers fill stroke"/></svg>