<svg xmlns="http://www.w3.org/2000/svg" width="48" height="48" viewBox="0 0 12.7 12.7"><g transform="rotate(-45 11.685 8.244) scale(.10583)"><path fill="#c74659" stroke="#333" stroke-linecap="round" stroke-linejoin="round" stroke-width="4.847" d="M115.3 20.51c.43 7.321.75 22.25.75 22.25l-2 4v4h14v-4l-2-4s-.446-12.79-.5-20.12c-.06-8.215 12.01-1.407 12.01-1.407 1.218-13.82-5.165-15.21-10.37-16.64-8.659-2.378-29.25.337-28.64 9.296 0 0 16.02-5.839 16.75 6.625z"/><rect width="98.29" height="13.29" x="-133.4" y="26.38" fill="#767164" stroke="#333" stroke-linecap="round" stroke-linejoin="round" stroke-width="5.109" rx="4.005" ry="16.495" transform="scale(-1 1)"/><path fill="#88cfe0" stroke="#333" stroke-linecap="round" stroke-linejoin="round" stroke-width="3.246" d="m120.6 19.48 12.55 9.339 13.67 4.218-13.67 4.218-12.55 9.339-4.218-9.339-5.339-4.218 5.339-4.218z"/><circle cx="124" cy="33.04" r="5.054" fill="#d4af37" stroke="#333" stroke-linecap="round" stroke-linejoin="round" stroke-width="2.5"/><path fill="#b4952f" d="M127.2 32.93s-2.37-2.832-4.167-1.265c-1.797 1.567.875 4.557.875 4.557a3.292 3.292 0 1 1 3.291-3.292z"/><path fill="#c74659" fill-rule="evenodd" stroke="#333" stroke-linecap="round" stroke-linejoin="round" stroke-miterlimit="10" stroke-width="3" d="m27.909 27.947 5.18 5.18-5.18 5.179-5.18-5.18z"/><path fill="#c74659" fill-rule="evenodd" stroke="#333" stroke-linecap="round" stroke-linejoin="round" stroke-miterlimit="10" stroke-width="3" d="M30.77 23.15h5.801v19.79H30.77z"/></g></svg>