<svg xmlns="http://www.w3.org/2000/svg" width="48" height="48" viewBox="0 0 12.7 12.7"><g stroke="#333" stroke-linecap="round" transform="rotate(-45 11.765 8.258) scale(.10583)"><g stroke-linejoin="round" transform="translate(0 -.002)"><path fill="#d4af37" stroke-width="4.847" d="M98.02 16.25c-.927 1.594 12.92-.113 14.62 3.949 3.507 8.384 6 36.2 11.5 36.2 5.386 0 5.676-28.12 9.276-36.41 1.858-4.281 11.81-2.076 10.84-3.739-2.839-4.885-4.193-10.7-14.12-10.7-9.928 0-29.28 5.816-32.12 10.7z"/><rect width="100.8" height="13.2" x="-135.9" y="26.47" fill="#87694d" stroke-width="5.109" rx="4.005" ry="16.495" transform="scale(-1 1)"/><path fill="#646055" stroke-width="3.869" d="m124 20.32 8.654 12.04-3.828 10.1h-9.652l-3.827-10.1z"/><circle cx="124" cy="33.47" r="4.5" fill="#88cfe0" stroke-width="2"/></g><rect width="11.56" height="17.71" x="24.37" y="24.13" fill="#646055" fill-rule="evenodd" stroke-miterlimit="10" stroke-width="5" rx="3.719" ry="3.719"/></g></svg>