<svg xmlns="http://www.w3.org/2000/svg" width="48" height="48" viewBox="0 0 12.7 12.7"><g stroke="#333" stroke-linejoin="round" transform="rotate(-45 21.714 8.054) scale(.10583)"><path fill="#88cfe0" stroke-linecap="round" stroke-width="4.847" d="m138.9-13.46 9.756-11.27s-.446-12.79-.5-20.12c-.06-8.215 16.26-4.282 16.26-4.282 10.15-21.5-41.59-16.15-43.26-4.469 0 0 16.21-3.089 16.07 7.141z"/><rect width="98.29" height="13.28" x="-156.7" y="-40.59" fill="#a6dbe8" stroke-linecap="round" stroke-width="5" rx="4.005" ry="16.495" transform="scale(-1 1)"/><path fill="#bbb" stroke-width="4" d="m164.5-42.2-30.68 2.16 2.16 6.48-2.16 6.48 30.68 2.16-4.32-8.64z"/><path fill="#88cfe0" fill-rule="evenodd" stroke-linecap="round" stroke-miterlimit="10" stroke-width="3" d="M57.56-40.83v13.88l-12.02-6.938z"/><circle cx="114.3" cy="-104.932" r="3" fill="#c74659" fill-rule="evenodd" stroke-linecap="round" stroke-miterlimit="10" stroke-width="2" transform="rotate(30)"/><circle cx="107.3" cy="-100.902" r="2.3" fill="#c74659" fill-rule="evenodd" stroke-linecap="round" stroke-miterlimit="10" stroke-width="2" transform="rotate(30)"/><path fill="#88cfe0" fill-rule="evenodd" stroke-linecap="round" stroke-width="2.954" d="M54.35-42.32h6.321v16.51H54.35z"/></g></svg>