<svg xmlns="http://www.w3.org/2000/svg" xml:space="preserve" width="48" height="48" viewBox="0 0 12.7 12.7"><g stroke="#333" stroke-linejoin="round" transform="rotate(-45 13.377 10.832) scale(.325)"><rect width="21.44" height="2.74" x="-40.1" y="-9.67" fill="#bbb" stroke-width="1.3" rx=".96" ry="4.22" transform="scale(-1)"/><path fill="#a6dbe8" stroke-width=".8" d="M19.18 10.02H18V6.58h1.18z"/><path fill="#88cfe0" d="M54.24 9.28h-3.17l-9.66.53V6.75l9.66.53h3.17l-.53 1z"/><path fill="#a6dbe8" stroke-width=".8" d="m41.4 10.02 1.07 1.59H41.4L39.69 10l.53-1.7-.53-1.73L41.41 5h1.06L41.4 6.58 43 8.3z"/></g><path fill="#74b0bf" stroke="#333" stroke-linejoin="round" stroke-width=".262" d="m2.138 11.13-.002-.261.316-.317-.3-.3-.316.317-.262-.002.003.56z"/></svg>