<svg xmlns="http://www.w3.org/2000/svg" width="48" height="48" viewBox="0 0 12.7 12.7"><g stroke="#333" transform="rotate(-45 13.429 10.962) scale(.325)"><rect width="21.44" height="2.74" x="-40.1" y="-9.67" fill="#767164" stroke-linejoin="round" stroke-width="1.3" rx=".96" ry="4.22" transform="scale(-1)"/><rect width="2.27" height="2.27" x="16.47" y="7.16" fill="#c74659" stroke-width=".8" rx="2.12" ry="2.12"/><path fill="#c74659" stroke-linejoin="round" stroke-width=".8" d="M19.18 10.02H18V6.58h1.18z"/><path fill="#c74659" stroke-linejoin="round" d="m54.24 9.8-5.82-.53-7 .54V6.75l7 .53 5.82-.53-.53 1.52z"/><circle cx="40.15" cy="8.3" r="1.93" fill="#9f9f9f" stroke-width=".6"/><path fill="#bbb" stroke-linejoin="round" stroke-width=".8" d="m41.87 6.1 1.29.84-.76 1.36.8 1.37-1.33.83c-.34.21.73 1.79.33 1.79h-.85c-.4 0-1.9-.35-1.78-.73l1.05-3.26-1.05-3.26c-.13-.38 1.38-.72 1.78-.72h.85c.4 0-.67 1.56-.33 1.78z"/><circle cx="40.15" cy="8.3" r=".97" fill="#c74659" stroke-width=".6"/></g></svg>